<?xml version="1.0" encoding="UTF-8" standalone="no"?>
<!DOCTYPE svg PUBLIC "-//W3C//DTD SVG 1.1//EN"
 "http://www.w3.org/Graphics/SVG/1.1/DTD/svg11.dtd">
<!-- Generated by graphviz version 2.50.0 (20211209.1537)
 -->
<!-- Title: g Pages: 1 -->
<svg width="536pt" height="452pt"
 viewBox="0.00 0.00 536.25 452.00" xmlns="http://www.w3.org/2000/svg" xmlns:xlink="http://www.w3.org/1999/xlink">
<g id="graph0" class="graph" transform="scale(1 1) rotate(0) translate(4 448)">
<title>g</title>
<g id="node1" class="node">
<title></title>
<g id="a_node1"><a xlink:href=".">
<ellipse fill="white" stroke="#666666" cx="5.5" cy="-222" rx="5.5" ry="5.5"/>
</a>
</g>
</g>
<!-- assets -->
<g id="node2" class="node">
<title>assets</title>
<g id="a_node2"><a xlink:href="assets" xlink:title="Stylesheet, etc.\l">
<polygon fill="white" stroke="#b3b3b3" points="283.32,-444 198.58,-444 198.58,-408 283.32,-408 283.32,-444"/>
<text text-anchor="start" x="206.77" y="-423" font-family="Helvetica,sans-Serif" font-size="10.00">Stylesheet, etc.</text>
</a>
</g>
</g>
<!-- &#45;&gt;assets -->
<g id="edge1" class="edge">
<title>&#45;&gt;assets</title>
<path fill="none" stroke="#999999" d="M9.38,-226.17C17.42,-237.67 41.1,-270.52 65,-294 109.21,-337.43 167.98,-379.02 204.89,-403.54"/>
<polygon fill="#999999" stroke="#999999" points="211.51,-407.92 203.4,-406.6 208.38,-405.85 205.26,-403.79 205.26,-403.79 205.26,-403.79 208.38,-405.85 207.11,-400.97 211.51,-407.92 211.51,-407.92"/>
<text text-anchor="middle" x="87.79" y="-336" font-family="Helvetica,sans-Serif" font-size="10.00">assets</text>
</g>
<!-- index.html -->
<g id="node3" class="node">
<title>index.html</title>
<g id="a_node3"><a xlink:href="index.html" xlink:title="Home page showing all photos\l">
<polygon fill="white" stroke="#b3b3b3" points="317.21,-336 164.7,-336 164.7,-300 317.21,-300 317.21,-336"/>
<text text-anchor="start" x="172.58" y="-315" font-family="Helvetica,sans-Serif" font-size="10.00">Home page showing all photos</text>
</a>
</g>
</g>
<!-- &#45;&gt;index.html -->
<g id="edge2" class="edge">
<title>&#45;&gt;index.html</title>
<path fill="none" stroke="#999999" d="M10.96,-223.83C32.61,-232.74 128.3,-272.09 188.93,-297.02"/>
<polygon fill="#999999" stroke="#999999" points="196.14,-299.98 187.92,-300.25 192.67,-298.56 189.2,-297.13 189.2,-297.13 189.2,-297.13 192.67,-298.56 190.48,-294.01 196.14,-299.98 196.14,-299.98"/>
<text text-anchor="middle" x="87.79" y="-267" font-family="Helvetica,sans-Serif" font-size="10.00">index.html</text>
</g>
<!-- photos -->
<g id="node4" class="node">
<title>photos</title>
<g id="a_node4"><a xlink:href="photos">
<ellipse fill="white" stroke="#666666" cx="240.95" cy="-222" rx="5.5" ry="5.5"/>
</a>
</g>
</g>
<!-- &#45;&gt;photos -->
<g id="edge3" class="edge">
<title>&#45;&gt;photos</title>
<path fill="none" stroke="#999999" d="M11.05,-221.79C20.89,-221.35 44.88,-220.34 65,-220 126.11,-218.96 199.25,-220.79 227.74,-221.62"/>
<polygon fill="#999999" stroke="#999999" points="235.36,-221.85 227.76,-225 231.61,-221.74 227.86,-221.62 227.86,-221.62 227.86,-221.62 231.61,-221.74 227.96,-218.25 235.36,-221.85 235.36,-221.85"/>
<text text-anchor="middle" x="87.79" y="-223" font-family="Helvetica,sans-Serif" font-size="10.00">photos</text>
</g>
<!-- feed.json -->
<g id="node8" class="node">
<title>feed.json</title>
<g id="a_node8"><a xlink:href="feed.json" xlink:title="JSON feed of all photos\l">
<polygon fill="white" stroke="#b3b3b3" points="301.57,-144 180.34,-144 180.34,-108 301.57,-108 301.57,-144"/>
<text text-anchor="start" x="188.15" y="-123" font-family="Helvetica,sans-Serif" font-size="10.00">JSON feed of all photos</text>
</a>
</g>
</g>
<!-- &#45;&gt;feed.json -->
<g id="edge7" class="edge">
<title>&#45;&gt;feed.json</title>
<path fill="none" stroke="#999999" d="M10.63,-219.35C20.02,-213.39 43.8,-198.71 65,-189 100.47,-172.75 141.44,-157.8 174.82,-146.55"/>
<polygon fill="#999999" stroke="#999999" points="182.25,-144.06 176.21,-149.64 178.7,-145.25 175.14,-146.44 175.14,-146.44 175.14,-146.44 178.7,-145.25 174.07,-143.24 182.25,-144.06 182.25,-144.06"/>
<text text-anchor="middle" x="87.79" y="-192" font-family="Helvetica,sans-Serif" font-size="10.00">feed.json</text>
</g>
<!-- feed.xml -->
<g id="node9" class="node">
<title>feed.xml</title>
<g id="a_node9"><a xlink:href="feed.xml" xlink:title="RSS feed of all photos\l">
<polygon fill="white" stroke="#b3b3b3" points="298.46,-36 183.44,-36 183.44,0 298.46,0 298.46,-36"/>
<text text-anchor="start" x="191.2" y="-15" font-family="Helvetica,sans-Serif" font-size="10.00">RSS feed of all photos</text>
</a>
</g>
</g>
<!-- &#45;&gt;feed.xml -->
<g id="edge8" class="edge">
<title>&#45;&gt;feed.xml</title>
<path fill="none" stroke="#999999" d="M8.98,-217.57C16.32,-204.7 39.08,-166.59 65,-141 106.79,-99.74 163.72,-62.52 201.13,-40.09"/>
<polygon fill="#999999" stroke="#999999" points="207.88,-36.07 203.16,-42.81 204.66,-37.99 201.43,-39.91 201.43,-39.91 201.43,-39.91 204.66,-37.99 199.71,-37.01 207.88,-36.07 207.88,-36.07"/>
<text text-anchor="middle" x="87.79" y="-144" font-family="Helvetica,sans-Serif" font-size="10.00">feed.xml</text>
</g>
<!-- photos/image1.jpg -->
<g id="node5" class="node">
<title>photos/image1.jpg</title>
<g id="a_node5"><a xlink:href="photos/image1.jpg" xlink:title="Image 1\l">
<polygon fill="white" stroke="#b3b3b3" points="528.25,-348 474.25,-348 474.25,-312 528.25,-312 528.25,-348"/>
<text text-anchor="start" x="483.18" y="-327" font-family="Helvetica,sans-Serif" font-size="10.00">Image 1</text>
</a>
</g>
</g>
<!-- photos&#45;&gt;photos/image1.jpg -->
<g id="edge4" class="edge">
<title>photos&#45;&gt;photos/image1.jpg</title>
<path fill="none" stroke="#999999" d="M246.44,-223.87C272.37,-234.72 404.16,-289.82 466.93,-316.07"/>
<polygon fill="#999999" stroke="#999999" points="473.87,-318.97 465.65,-319.19 470.41,-317.52 466.95,-316.08 466.95,-316.08 466.95,-316.08 470.41,-317.52 468.25,-312.96 473.87,-318.97 473.87,-318.97"/>
<text text-anchor="middle" x="395.79" y="-298" font-family="Helvetica,sans-Serif" font-size="10.00">image1.jpg</text>
</g>
<!-- photos/image2.jpg -->
<g id="node6" class="node">
<title>photos/image2.jpg</title>
<g id="a_node6"><a xlink:href="photos/image2.jpg" xlink:title="Image 2\l">
<polygon fill="white" stroke="#b3b3b3" points="528.25,-240 474.25,-240 474.25,-204 528.25,-204 528.25,-240"/>
<text text-anchor="start" x="483.18" y="-219" font-family="Helvetica,sans-Serif" font-size="10.00">Image 2</text>
</a>
</g>
</g>
<!-- photos&#45;&gt;photos/image2.jpg -->
<g id="edge5" class="edge">
<title>photos&#45;&gt;photos/image2.jpg</title>
<path fill="none" stroke="#999999" d="M246.88,-222C273.77,-222 403.81,-222 466.42,-222"/>
<polygon fill="#999999" stroke="#999999" points="474.07,-222 466.57,-225.38 470.32,-222 466.57,-222 466.57,-222 466.57,-222 470.32,-222 466.57,-218.63 474.07,-222 474.07,-222"/>
<text text-anchor="middle" x="395.79" y="-225" font-family="Helvetica,sans-Serif" font-size="10.00">image2.jpg</text>
</g>
<!-- photos/image3.jpg -->
<g id="node7" class="node">
<title>photos/image3.jpg</title>
<g id="a_node7"><a xlink:href="photos/image3.jpg" xlink:title="Image 3\l">
<polygon fill="white" stroke="#b3b3b3" points="528.25,-132 474.25,-132 474.25,-96 528.25,-96 528.25,-132"/>
<text text-anchor="start" x="483.18" y="-111" font-family="Helvetica,sans-Serif" font-size="10.00">Image 3</text>
</a>
</g>
</g>
<!-- photos&#45;&gt;photos/image3.jpg -->
<g id="edge6" class="edge">
<title>photos&#45;&gt;photos/image3.jpg</title>
<path fill="none" stroke="#999999" d="M246.44,-220.13C272.37,-209.28 404.16,-154.18 466.93,-127.93"/>
<polygon fill="#999999" stroke="#999999" points="473.87,-125.03 468.25,-131.04 470.41,-126.48 466.95,-127.92 466.95,-127.92 466.95,-127.92 470.41,-126.48 465.65,-124.81 473.87,-125.03 473.87,-125.03"/>
<text text-anchor="middle" x="395.79" y="-167" font-family="Helvetica,sans-Serif" font-size="10.00">image3.jpg</text>
</g>
</g>
</svg>
